<?xml version="1.0" encoding="utf-8"?>
<!-- Generator: Adobe Illustrator 25.4.1, SVG Export Plug-In . SVG Version: 6.00 Build 0)  -->
<svg version="1.1" id="Layer_1" xmlns="http://www.w3.org/2000/svg" xmlns:xlink="http://www.w3.org/1999/xlink" x="0px" y="0px"
	 viewBox="0 0 120 120" style="enable-background:new 0 0 120 120;" xml:space="preserve">
<path d="M40,71.8v-23h1.2v3.6c0.1-0.2,0.3-0.3,0.4-0.5c1-2.2,3.2-3.5,5.7-3.5c2.8-0.1,5.2,1,6.5,3.5c1.8,3.2,1.9,7,0.3,10.3
	c-1.3,2.8-4.4,4.3-7.8,3.7c-2.1-0.2-4-1.4-5-3.3v9.2L40,71.8z M41.2,56.9l0.3,2.7c0.5,3.1,2.3,4.9,5.2,5.2c2.8,0.5,5.5-1.1,6.5-3.7
	c1.1-2.7,1-5.7-0.2-8.2c-1-2.3-3.5-3.7-6.1-3.4c-2.4,0.2-4.4,1.8-5,4.1C41.6,54.7,41.4,55.8,41.2,56.9L41.2,56.9z M80.7,60
	c-0.4,3.4-3.2,5.9-6.6,6c-5.2,0.3-7.7-3.2-8.1-7.2c-0.3-2.2,0.1-4.4,1-6.4c1.3-2.8,4.3-4.4,7.4-4c2.9,0.2,5.4,2.3,6,5.2
	c0.3,1.3,0.5,2.5,0.6,3.8H67.4c-0.3,3.6,1.7,6.6,4.5,7.3c3.5,0.8,6.4-0.6,7.5-3.9C79.6,59.9,80,59.8,80.7,60L80.7,60z M67.4,56.2
	h12.3c-0.1-3.9-2.5-6.7-5.8-6.7C70.2,49.4,67.5,52.1,67.4,56.2z M83.3,60.1h1.2c0.1,1.8,1.2,3.4,2.8,4.2c2.1,0.9,4.4,0.9,6.5-0.2
	c1.1-0.5,1.8-1.6,1.7-2.9c0.1-1.2-0.7-2.2-1.8-2.6c-1.3-0.5-2.7-0.8-4.1-1.2c-1.4-0.4-2.8-0.9-4.1-1.5c-2.2-1.1-2.3-5.2,0.2-6.5
	c2.6-1.4,5.7-1.5,8.3-0.1c1.6,0.9,2.5,2.7,2.2,4.5h-1c0,0-0.1-0.1-0.1-0.1c-0.1-3.3-2.9-4.3-5.9-4c-0.9,0.1-1.8,0.4-2.6,0.8
	c-1,0.5-1.6,1.5-1.5,2.6c0,1.1,0.7,2,1.7,2.4c1.3,0.5,2.7,0.8,4,1.2l3.2,0.8c1.5,0.5,2.6,1.9,2.6,3.5c0.3,1.7-0.6,3.5-2.2,4.3
	c-2.8,1.6-7.5,1.2-9.6-0.8C83.9,63,83.3,61.6,83.3,60.1L83.3,60.1z M112.1,53.7h-1.1c0-0.2-0.1-0.3-0.1-0.4c0-1.7-1.3-3.2-3-3.6
	c-1.6-0.5-3.3-0.4-4.8,0.2c-1.2,0.4-2.1,1.5-2.1,2.8c0,1.3,0.8,2.4,2,2.7l5.2,1.3c0.6,0.1,1.1,0.3,1.7,0.5c1.7,0.6,2.8,2.1,2.8,3.9
	c0.1,1.8-1,3.4-2.6,4c-2.4,1.1-5.2,1.1-7.7,0.1c-2-0.9-3.3-2.9-3.2-5.2h1.1c0.4,2,1.8,3.7,3.7,4.5c1.9,0.8,4,0.6,5.8-0.5
	c1.1-0.5,1.7-1.7,1.6-2.8c0.1-1.2-0.7-2.2-1.8-2.6c-1.3-0.5-2.7-0.8-4.1-1.2c-1.4-0.4-2.8-0.9-4.1-1.5c-2.1-1-2.3-5.2,0.1-6.5
	c2.6-1.5,5.8-1.5,8.4-0.1C111.4,50.2,112.3,51.9,112.1,53.7L112.1,53.7z M37.9,65.5c-0.9,0.3-2,0-2.4-0.9l-4.4-6.1l-0.6-0.9
	l-5.1,6.9c-0.4,0.8-1.4,1.2-2.3,0.9l6.6-8.8l-6.1-8c0.9-0.3,1.9,0,2.4,0.8l4.6,6.2l4.6-6.1c0.4-0.8,1.4-1.2,2.3-0.9L35,51.9
	l-3.2,4.2c-0.4,0.3-0.4,0.9-0.1,1.2c0,0,0,0,0.1,0.1L37.9,65.5L37.9,65.5z M65.9,48.6v1.2c-3.4-0.2-6.3,2.4-6.6,5.8
	c0,0.2,0,0.4,0,0.6c0,2.8,0,5.6,0,8.4v1h-1.2V48.7h1.2v3.5C60.8,49.7,63,48.7,65.9,48.6L65.9,48.6z M7.3,56.6l0.5-2.6
	c1.5-5.2,7.5-7.4,11.6-4.2c2.4,1.9,3,4.6,2.9,7.6H8.8c-0.2,5.4,3.7,8.7,8.7,7c1.6-0.6,2.9-2,3.3-3.7c0.3-0.9,0.7-1,1.5-0.8
	c-0.3,2.1-1.5,4-3.3,5c-3,1.7-6.8,1.2-9.3-1.2c-1.2-1.4-1.9-3.1-2.1-4.9c0-0.3-0.1-0.6-0.2-0.8C7.3,57.6,7.3,57.1,7.3,56.6L7.3,56.6
	z M8.8,56.2h12.3c-0.1-3.9-2.6-6.7-5.9-6.7C11.6,49.4,8.9,52.2,8.8,56.2L8.8,56.2z"/>
</svg>
