<?xml version="1.0" encoding="utf-8"?>
<!-- Generator: Adobe Illustrator 25.4.1, SVG Export Plug-In . SVG Version: 6.00 Build 0)  -->
<svg version="1.1" id="Layer_1" xmlns="http://www.w3.org/2000/svg" xmlns:xlink="http://www.w3.org/1999/xlink" x="0px" y="0px"
	 viewBox="0 0 2500 2500" style="enable-background:new 0 0 2500 2500;" xml:space="preserve">
<style type="text/css">
	.st0{fill:#2F2707;}
	.st1{fill:#DE4C36;}
</style>
<path class="st0" d="M1494,1083.8c-54.7,0-95.4,26.8-95.4,91.4c0,48.7,26.8,82.5,92.4,82.5c55.6,0,93.4-32.8,93.4-84.5
	C1584.4,1114.6,1550.6,1083.8,1494,1083.8L1494,1083.8z M1384.7,1539.9c-12.9,15.9-25.8,32.7-25.8,52.6c0,39.7,50.6,51.7,120.2,51.7
	c57.6,0,136.1-4,136.1-57.6c0-31.8-37.8-33.8-85.5-36.8L1384.7,1539.9L1384.7,1539.9z M1678.8,1086.8
	c17.9,22.9,36.8,54.7,36.8,100.4c0,110.3-86.4,174.8-211.6,174.8c-31.8,0-60.6-4-78.5-8.9l-32.8,52.6l97.4,6
	c171.9,11,273.2,15.9,273.2,148c0,114.3-100.3,178.8-273.2,178.8c-179.8,0-248.4-45.7-248.4-124.2c0-44.7,19.9-68.5,54.6-101.3
	c-32.8-13.9-43.7-38.7-43.7-65.5c0-21.9,10.9-41.7,28.8-60.6c17.9-18.8,37.7-37.7,61.6-59.6c-48.7-23.8-85.4-75.5-85.4-149
	c0-114.2,75.5-192.7,227.5-192.7c42.7,0,68.6,3.9,91.4,9.9h193.7v84.4L1678.8,1086.8L1678.8,1086.8z M1945,906.3
	c-56.6,0-89.4-32.8-89.4-89.5c0-56.6,32.8-87.4,89.4-87.4c57.6,0,90.4,30.8,90.4,87.4C2035.4,873.4,2002.6,906.3,1945,906.3z
	 M1816.8,1503.3v-78.4l50.7-6.9c13.9-2,15.9-5,15.9-19.9v-292.1c0-10.9-3-17.9-12.9-20.8l-53.6-18.9l10.9-80.4h205.7V1398
	c0,15.9,1,17.9,15.9,19.9l50.7,6.9v78.4H1816.8z M2492.8,1464.8c-42.7,20.8-105.3,39.7-162,39.7c-118.2,0-162.9-47.6-162.9-160
	v-260.3c0-6,0-9.9-8-9.9h-69.5v-88.4c87.5-10,122.2-53.7,133.1-162h94.4v141.1c0,6.9,0,9.9,8,9.9H2466v99.3h-148v237.4
	c0,58.6,13.9,81.4,67.5,81.4c27.9,0,56.6-6.9,80.5-15.9L2492.8,1464.8"/>
<path class="st1" d="M1020.8,1204.1L566.5,749.8c-26.2-26.2-68.6-26.2-94.7,0c0,0,0,0,0,0l-94.3,94.3l119.7,119.6
	c28.7-9.8,60.4-2.4,81.9,19.1c21.5,21.6,28.9,53.6,18.9,82.4l115.3,115.3c27.9-9.6,60.1-3.4,82.4,18.9c31.1,31.1,31.1,81.6,0,112.7
	c0,0,0,0,0,0c-31.1,31.1-81.6,31.2-112.8,0.1c-22.8-22.8-29.6-57-17.4-86.8L557.9,1118l0,283c7.8,3.9,14.9,8.9,21.1,15.1
	c31.1,31.1,31.1,81.6,0,112.8c0,0,0,0,0,0c-31.2,31.2-81.6,31.2-112.7,0c-31.1-31.1-31.2-81.6,0-112.8c7.5-7.5,16.4-13.4,26.1-17.4
	V1113c-9.8-4-18.7-9.9-26.1-17.4c-23.6-23.6-29.3-58.2-17.2-87.2l-117.9-118L19.6,1202c-26.2,26.2-26.2,68.6,0,94.8c0,0,0,0,0,0
	L473.9,1751c26.2,26.2,68.6,26.2,94.8,0l452.1-452.1C1047,1272.7,1047,1230.3,1020.8,1204.1"/>
</svg>
