<?xml version="1.0" encoding="utf-8"?>
<!-- Generator: Adobe Illustrator 25.4.1, SVG Export Plug-In . SVG Version: 6.00 Build 0)  -->
<svg version="1.1" id="Layer_1" xmlns="http://www.w3.org/2000/svg" xmlns:xlink="http://www.w3.org/1999/xlink" x="0px" y="0px"
	 viewBox="0 0 1945 1945" style="enable-background:new 0 0 1945 1945;" xml:space="preserve">
<style type="text/css">
	.st0{fill:#0E0F0D;}
	.st1{fill:#E1C5A2;}
	.st2{fill:#A89983;}
	.st3{fill:#FFFFFF;}
	.st4{fill:#E0D896;}
	.st5{fill:#D7C184;}
	.st6{fill:#9F8F78;}
	.st7{fill:#6E6A67;}
	.st8{fill:#93232C;}
	.st9{fill:#731B2A;}
</style>
<path class="st0" d="M1841.1,689.8c-0.8-6.6-1.9-13.1-3.2-19.6c-1.2-6.8-2.8-13.4-4.7-20l-5-8c-20.7-16.2-43-28.5-65.7-39.4
	c-18.7-8.8-37.7-16.5-56.9-23.6c-53.6-148.7-145.7-280.6-266.8-372.5c-125.2-95-272.4-145.2-425.8-145.2
	c-153.4,0-300.6,50.3-425.8,145.3c-121.1,91.9-213.2,223.8-266.8,372.5c-19.2,7.1-38.2,14.8-56.9,23.6c-22.7,10.9-45,23.1-65.7,39.4
	l-5,8c-1.8,6.6-3.4,13.3-4.7,20c-1.3,6.4-2.3,13-3.2,19.6c-1.8,13-3.1,26.1-3.8,39.2c-1.3,26.3-0.6,52.6,2.3,78.8
	c2.8,26.2,7.7,52.2,14.6,77.6c3.6,12.8,7.9,25.4,12.7,37.8c2.4,6.3,5.1,12.5,8,18.7c1.5,3.1,3,6.1,4.7,9.3c3.6,6.3,4.3,7.5,5.8,9.8
	l6.8,6.3c4.4,2.3,8.1,4,12.1,5.9l11.7,5.2c2.2,0.9,4.2,1.8,6.4,2.7c-53.2,49.1-110.9,113-160.9,191.9l-63.1,99.6l88.6-77.8
	c1.5-1.3,75.8-65.7,199.8-138.6l1.7,14.2c-8.1,4.2-47.1,24.7-58.7,34.4c-19.2,15.9-20.1,40.7-15,86.9c2.6,23.7,11.5,69.6,23.5,111.7
	c20.6,72.5,35.7,85.3,49,88.3c6,1.4,13.7,2.1,22.4,2.1c23.7,0,54.2-4.6,74-10.6c23.3,72.4,56.2,137.7,96.4,195.1
	c-1.9,0.5-3.9,1.2-5.8,1.7c-24.2-11.2-108.7-50.4-137.1-63.1l-59.4-26.7l35.1,54.8c2.6,4,63.2,98.5,112.7,162.2
	c46.3,59.4,109.7,120.2,229.3,120.2c14.4,0,29.5-0.9,45-2.6c35.7-4.1,62.5-7.3,82.8-9.9c125.6,46.1,264,49,395.4-0.8
	c34.4-13.1,67.5-29.4,98.8-48.8c50.7-12.2,106.1-25.4,133.4-33.1c4.4-1.2,9.9-2.5,15.6-3.8c38.1-8.8,101.9-23.6,135.9-91.5
	c34.2-68.6,90.1-173.7,90.7-174.8l26.1-49l-50.9,22.1c-2.7,1.2-67.2,29.3-100.7,46.9c23.3-53.6,37-97.9,41.8-115
	c18.8,4.5,46.6,3.9,67,3.9c10.1,0,20.4-1.8,27.1-3.5c13.3-3.4,23.6-12.2,42.9-87c11.2-43.5,19.3-90.8,21.5-115.1
	c4.3-47.3,2.9-72.7-16.4-88.7c-9.6-8-37.9-23.2-52.3-30.7c8-3.4,12-2.4,12.3-2.3l13-49.5c4.6-2,9.5-3.9,15-6.1
	c7.9-3.1,15.8-6.3,23.6-9.7l11.6-5.2c4.1-1.9,7.7-3.6,12.1-5.9l6.8-6.3c1.5-2.2,2.3-3.5,3.2-5.2c4.3-7.8,5.8-10.8,7.3-13.8
	c2.9-6.2,5.6-12.4,8-18.7c4.8-12.4,9-25,12.7-37.8c6.9-25.4,11.8-51.4,14.6-77.6c2.9-26.1,3.6-52.5,2.3-78.8
	C1844.2,715.9,1843,702.8,1841.1,689.8L1841.1,689.8z"/>
<path class="st1" d="M1095.2,1708.6c-9.6,1.4-19.2,2.6-28.7,3.4c-6.2,0.3-12.7,0.9-18.6,0.9l-2.2,0.1c7.4-16.5,13.1-29.4,17.3-39.1
	C1071.7,1683.6,1082.7,1695.6,1095.2,1708.6"/>
<path class="st2" d="M1083.5,969.5c-15,12.2-30.8,23.5-47.3,33.5l-55,33.2c-34.5,4.2-64.4,12.7-66.1,13.3c-1,0.2-1.9,0.7-2.8,1.2
	c-2.7,1.6-4.7,4.2-5.7,7.2l-56,184.5l-299.2,66.5l-94.3-66l-27.4-222.1c53.5-9.8,125.1-21.2,211.1-30.8
	c-9.4,11.2-18.3,22.8-26.6,34.7l-51.2,73.5l74.5-49.7c1.1-0.8,48.6-32,126.2-70c84.6-6.3,169.4-9.5,254.2-9.5
	C1040.2,968.9,1062.1,969.1,1083.5,969.5L1083.5,969.5z M617.8,1219.7c21.3-11.5,45.3-9.8,82.9-9.7c4,0.1,8.2,0,12.5-0.1
	c3.7,0,7.4-0.1,11.4-0.2c38.8-0.4,71,3.3,70.4-57.5c-0.6-60.8-27.6-110-66.3-109.6c-38.7,0.3-76.2,50.2-73.9,111
	c0.6,15.8,3,27.3,6.7,35.5C627.6,1197.5,618.2,1218.4,617.8,1219.7L617.8,1219.7z M1602.2,1020l-26.9,188.9l-95,66.6l-298.9-34
	l-55.8-183.6c-1.2-4.1-4.4-7.2-8.5-8.4c-1.8-0.6-38.8-11.1-78.1-14.5l7.2-0.5c6.2-0.5,109.2-13.1,232.3-55.5
	C1414.8,989.4,1526.1,1006.1,1602.2,1020L1602.2,1020z M1411.2,1194.8c-0.4-1.5-8.6-25.9-44.6-21.6c4.1-9,6-21.2,4.7-38
	c-4.7-60.7-40.1-108.9-78.8-107.6c-38.7,1.3-63.5,51.7-61.4,112.5c2.1,60.7,34.6,60.3,73.3,58.9
	C1356.6,1198.1,1385.1,1182.2,1411.2,1194.8L1411.2,1194.8z"/>
<path class="st3" d="M1309,1085.5c0.2,10.9-8.5,19.9-19.4,20.1c-10.9,0.2-19.9-8.5-20.1-19.4c0,0,0,0,0,0
	c-0.2-10.9,8.4-19.9,19.4-20.1c0,0,0,0,0,0c10.9-0.2,19.9,8.4,20.1,19.3C1309,1085.4,1309,1085.5,1309,1085.5 M754.3,1100.1
	c0.3,10.9-8.3,20-19.2,20.3c-10.9,0.3-20-8.3-20.4-19.2c0,0,0-0.1,0-0.1c-0.3-10.9,8.3-20,19.2-20.3c0,0,0,0,0.1,0
	C744.9,1080.5,754,1089.2,754.3,1100.1"/>
<path class="st1" d="M1732.6,1103.1c-4.7-3.9-20.3-12.8-35.5-21l-25,175.6c-0.5,3.4-2.4,6.5-5.3,8.5l-35.8,25.1
	c-0.8,4.2-1.5,7.8-2.1,11.1c35.2,8.7,69.4-16.7,88.6-35c8.9-34.6,16.6-75.6,19.3-105C1740.9,1116.6,1737.2,1106.8,1732.6,1103.1
	 M1179.2,1770c-23.2-8.3-44.6-21.8-63.1-40.1c-1.5-1.6-3-3.1-4.6-4.6c-14.5,3-29.2,5.1-44,6.3c-6.3,0.3-12.3,0.8-18.9,0.8l-9.7,0.1
	l-3.7-0.1c-22.2,33-59.6,51.1-88.9,60.8C1033.3,1808.1,1129,1785.3,1179.2,1770 M413.6,1340.1c-0.8-2.6-1.6-5.3-2.4-7.9l-46.6-32.6
	c-2.9-2.1-4.8-5.2-5.2-8.8l-22.7-184.3c-16.8,9-36.2,20-41.4,24.4c-4.5,3.7-7.9,13.2-3.1,57.1c3.7,33,15.3,83.8,27.1,121.8
	C343,1327.7,377.7,1346.7,413.6,1340.1 M1109.6,1331.7c-5-0.6-9.1-4.1-10.6-8.9l-57.5-189.3c-9.6-1.3-18.2-2-25.4-2
	c-7.2,0-15.8,0.7-25.4,2l-55.8,183.9c-1.3,4.3-4.9,7.6-9.3,8.6l-26.7,5.9c-2.3,9.4-9.9,23.3-34.7,30.9
	c-40,12.2-292.9,87.6-321.8,83.5c-16.8-2.4-48.9-20-72.6-34.3c-9.5-22.3-14.7-37.5-15.9-41.1v-0.1l-0.1,0.1
	c3.4,9.8,36.4,104.8,103.4,197.8c71.9-21.2,134-40.9,153.9-47.2c40.4-62.4,98.1-124.2,139-126.4c7.2-0.4,14.4-0.6,21.6-0.6
	c20,0,39.2,1.4,57,3.5c-15.1-13.7-18.2-29.7-20.4-36.8c0,0,52.3,40.9,118.7,32.3c66.6-8.5,107.9-46.9,107.9-46.9l1.3-11.8
	L1109.6,1331.7"/>
<path class="st1" d="M1163.6,1355.6c-13.8-3.6-22.5-9.3-28-15.2l-0.7,6c0,0-0.2,27.9-29.2,49.6c55.7-16.9,78.8-22.6,94.6-22.6
	c17.4,0,26,7.3,33.5,13.6c1.4,1.2,2.9,2.4,4.6,3.8c36.6,28.8,73.1,57.7,109.5,86.8c17.4,2,72.8,8.4,107.7,11.5
	c20.1,1.9,38.3,3.4,56.1,3.4c5.7,0,11.1-0.2,16.2-0.5c18.4-35.2,35.3-74.2,50.4-117.1c-20.6,14.5-67.6,46.1-89.6,50.2
	C1460,1430.4,1204,1366.1,1163.6,1355.6"/>
<path class="st4" d="M1807.9,693.5c-0.5-6-1.1-12.1-1.9-18.1c-0.5-4.3-1.1-8.6-1.9-12.9c-16.2-13.6-34.6-25.7-53.7-36.7
	c-20.7-12.2-42.4-23-64.6-33c-22-10.4-44.6-19.8-67.2-28.9c-11.3-4.6-22.8-9.1-34.3-13.3c-11.4-4.5-23-8.6-34.6-12.9
	c24.3,4,48.4,9.6,72.3,15.7c15.5,4,31,8.5,46.3,13.3C1559.2,281.3,1298.1,95.4,1013,95.4c-285.1,0-546.2,185.9-655.4,471.3
	c15.3-4.8,30.8-9.3,46.3-13.3c23.9-6.1,48-11.7,72.3-15.7c-11.7,4.2-23.2,8.4-34.7,12.9c-11.5,4.3-22.9,8.7-34.2,13.3
	c-22.7,9.1-45.3,18.5-67.3,28.9c-22.1,10.1-43.8,20.9-64.5,33c-19.1,11-37.5,23.1-53.7,36.7c-0.7,4.3-1.3,8.6-1.9,12.9
	c-0.7,6-1.4,12.1-1.9,18.1c-1,12.2-1.5,24.4-1.6,36.6c-0.3,24.5,1.4,48.9,4.5,73.1c3.4,24.3,7.8,48.4,14.4,71.7
	c3.2,11.6,6.9,23.1,11.2,34.3c2.2,5.6,4.5,11.1,6.9,16.4c1.2,2.7,2.4,5.3,3.7,7.8l1.6,3c1.8,0.9,3.7,1.9,5.4,2.7l10.9,5.2
	c6.1,2.8,14.5,6.8,21.4,9.9c0.4-0.4,0.8-0.7,1.1-1l-20.1-76.8c4.3-1.2,42.5-11,108.5-23.6c-5.3-1-10.7-2.1-15.9-3.4
	c-15-3.8-29.8-8.3-44.2-14.1c-7.1-3-14.1-6.3-20.8-10.1c-6.7-3.9-13.2-8.2-18.3-14c72.4,23.7,222.2,13,355.3-0.8
	c121.7-12.6,243.7-20.7,366.4-20.9c122.6,0.3,244.7,8.4,366.3,20.9c133.2,13.8,282.9,24.5,355.3,0.8c-5.1,5.8-11.7,10.1-18.3,14
	c-6.7,3.8-13.8,7.1-20.9,10.1c-14.4,5.8-29.1,10.3-44.2,14.1c-2.2,0.5-4.5,1-6.7,1.5c72.3,13.4,114.4,24.3,118.9,25.5l-19.3,73.1
	c3.9-1.7,7.8-3.4,11.6-5.2l10.9-5.2c1.8-0.9,3.6-1.8,5.5-2.7l1.5-3c1.3-2.5,2.6-5.1,3.8-7.8c2.4-5.3,4.8-10.8,6.9-16.4
	c4.3-11.3,8-22.7,11.2-34.3c6.6-23.3,11-47.5,14.3-71.7c3.1-24.2,4.8-48.7,4.6-73.1C1809.5,717.9,1809,705.7,1807.9,693.5"/>
<path class="st5" d="M1312.9,551.5c1.1,32.7,0.3,91.9-14.9,147.4c-0.6,2.1-0.5,4.3,0,6.4c-19.4-2-38.7-3.8-58.1-5.4
	c21.7-45.6,26.5-94.1,27.5-111.2C1284.1,576.8,1300.7,562.6,1312.9,551.5 M758.5,588.7c1,17.1,5.8,65.5,27.5,111.1
	c-19.4,1.5-38.8,3.3-58.1,5.4c0.5-2,0.6-4.1,0-6.3c-15.2-55.4-16-114.6-14.9-147.4C725.2,562.6,741.8,576.8,758.5,588.7
	 M1550.9,750.5c-0.1,0.6-0.2,1.1-0.4,1.6c2.1,0.6,4.2,1.2,6.3,1.9c17.9,5.9,35.9,12,53,19.9c-28.6-18.6-46.7-72.2-56.8-113.2
	C1555.8,714.4,1551.2,748.5,1550.9,750.5 M689.1,541.2l-185,52.6c-11.1,72-7.7,126.9-5.9,146l0.9-0.6c0,0,6-78.4,18.3-108.5
	c6.3-15.4,45.1-25.3,74.6-32.3c29.6-7,76.8-21.1,85.9,20.4c5.7,25.7,13.4,47,20.9,62.7C687,624.5,687.7,568.7,689.1,541.2
	 M1336.8,541.2c1.5,28.6,2.2,87.7-11.2,147.1c8.4-16.1,17.7-39.9,24.2-69.4c9.1-41.5,56.3-27.4,85.9-20.4
	c29.6,7.1,68.3,16.9,74.6,32.3c10.4,25.5,16.3,85.5,17.9,103.3c1.8-23,3.7-74.5-6.4-140.3L1336.8,541.2 M757.1,557.2
	c6.5,5.2,13.2,10.2,20.1,14.9c3.2,2.2,5.2,5.9,5.3,9.8c0,0.6,1.4,61.6,28.4,113.5c0.4,0.8,0.7,1.6,0.9,2.4
	c67-4.6,134.2-6.4,201.2-6.4c67.1,0,134.2,2,201.2,6.6c0.3-0.9,0.5-1.7,1-2.6c26.9-51.9,28.4-112.8,28.4-113.5
	c0.1-3.9,2.1-7.6,5.3-9.8c6.6-4.5,13.1-9.3,19.4-14.4l0.8-2.4c14-136.3-11.7-262-28-324c-0.9,42.4-10.9,406.1-101.2,406.1H890.7
	c-95.8,0-103.5-410-103.5-410l-4.9,14.6C765.9,307.4,743.5,427.6,757.1,557.2 M475.4,752.1c-0.1-0.5-0.2-1-0.4-1.6
	c-0.3-2-4.9-36.1-2.1-89.8c-10.1,41-28.3,94.7-56.9,113.3c17.1-7.9,35.1-14.1,53.1-20C471.2,753.4,473.3,752.7,475.4,752.1"/>
<path class="st6" d="M1628.9,1302.2c-1.5,8.1-3.3,16.1-5.3,24.1c20.5,4.8,54.1,8.5,70.2,5.4c6.9-7.5,15.8-33.4,23.7-64.5
	C1698.3,1285.5,1664.1,1310.9,1628.9,1302.2 M892.7,1805.1c49.1,13.4,99.2,19.3,148.6,16c49.5-3.4,113.8-14.1,182.1-41.8
	c-15.1-1.1-30-4.2-44.2-9.3c-50.2,15.3-145.9,38.1-232.9,23.2c-23,7.6-41.1,9.9-42.8,10.2C899.8,1803.8,896.8,1804.3,892.7,1805.1
	 M416.8,1351.1c-1.1-3.7-2.2-7.3-3.2-11c-35.9,6.6-70.6-12.4-94.2-30.4c7.6,24.4,15.3,43.6,21.1,49.4
	C358.3,1362.2,397.6,1356.7,416.8,1351.1 M469.9,1411.9c23.7,14.3,55.7,32,72.6,34.3c28.8,4.1,281.8-71.3,321.8-83.5
	c24.8-7.6,32.5-21.4,34.7-30.9L534,1413.1c-0.9,0.2-1.8,0.3-2.7,0.3h0c-2.5,0-5-0.8-7.2-2.3l-14.2-9.9l-42.6-29.9v-0.1l-17.2-12
	c0.3,1,0.6,1.9,1,2.9c1,2.8,1.9,5.7,3,8.5v0.1C455.1,1374.3,460.4,1389.5,469.9,1411.9 M1589.3,1341.8c2.3-8.6,4.6-17.3,6.7-26.2
	l-12.7,8.9l-34.1,23.9l-36.9,25.9c-1.9,1.3-4.1,2.1-6.4,2.3c-0.7,0-1.5,0-2.2,0l-367.5-41.8l-0.6,5.7c5.5,5.9,14.2,11.6,28,15.2
	c40.4,10.5,296.4,74.8,325.1,69.4c22-4.1,69-35.7,89.6-50.2c0.2-0.5,0.4-1,0.5-1.5C1582.4,1362.9,1585.9,1352.4,1589.3,1341.8"/>
<path class="st7" d="M1200.5,846.7c-2.9,3.7-6.1,7.8-9.5,12.1c-17.4,22.1-41.6,50.2-70.3,77.8c-34.3-1.1-68.6-1.6-102.9-1.6
	c-58.3,0-114.1,1.5-167.2,4.1c75-31.1,165-61.4,262.5-79.7C1142.1,853.9,1171.2,849.6,1200.5,846.7 M761.9,880.2
	c-26.8,18.8-57,42.8-86.3,71.9c-65.1,6.5-129.9,14.9-194.5,25.3C564.1,939.3,658.9,904.2,761.9,880.2 M1678.6,1035.1l-30.5,213.5
	L1501.8,1351l-381.3-43.4l-57.4-189c-1.4-4.6-5.3-8-10-8.8c-14.1-2.3-26.6-3.4-37-3.4c-10.5,0-22.9,1.1-37.1,3.4
	c-4.7,0.8-8.6,4.2-10,8.8l-56,184.4l-379.1,84.4l-150.3-105.2L354,1042.6c6.5-3.6,13.1-7.3,19.6-10.9c9.3-2,19.8-4.1,31.4-6.3
	l27.9,226.1c0.4,3.5,2.4,6.6,5.3,8.7l103.4,72.4c2.1,1.4,4.6,2.2,7.1,2.2c0.9,0,1.8-0.1,2.8-0.3l311.7-69.3c1.1-0.3,2.1-0.6,3.1-1.1
	c2.9-1.6,5.2-4.2,6.1-7.5l56.2-184.8c15.1-3.9,53.6-12.9,87.5-12.9c33.8,0,72.4,9,87.5,12.9l56.1,184.8c1.4,4.8,5.6,8.3,10.6,8.8
	l311.8,35.4c3,0.4,6.1-0.5,8.5-2.2l103.4-72.3c2.8-2,4.7-5.1,5.2-8.5l27.6-193.2C1647.6,1028.5,1664.9,1032.2,1678.6,1035.1
	 M1717,901.2l-26.8,101.8c-54.9-12.1-175.4-35.9-339.5-51.9c53.6-22.9,108.2-51.5,158.1-87.4C1606.4,877.6,1678.1,892.4,1717,901.2
	 M318.8,901.2l7.5,28.2c18.2-14.5,36.9-28.3,56.1-41.4C356.2,893,334.7,897.6,318.8,901.2"/>
<path class="st8" d="M1371.6,844.4c-41.1-2.3-82.2-4.3-123.3-6c-4.6,6.8-9.3,13.5-14.2,20.1c-22,29.8-65.4,84.1-121.1,130.7
	c41.9-13.3,208-69,292.2-142.8C1394,845.8,1382.8,845.1,1371.6,844.4 M1070.5,833.6l0.2,0c-20.8-0.3-41.7-0.5-62.5-0.6h0
	c-30.7,0.1-61.2,0.5-91.9,1l-56.5,26.8c-0.3,0.1-0.6,0.3-0.8,0.5c-8.5,4.1-82.7,41.6-152.6,108.4c6.1-3.2,12.6-6.6,19.3-9.9
	c38.2-25.7,140.1-86.5,298.5-126.5C1039.6,833.2,1055,833.3,1070.5,833.6 M723.2,840.4c-26.2,1.2-52.3,2.6-78.5,4
	c-30.3,1.7-60.5,3.7-90.7,6c-15.1,1.2-30.1,2.4-45.1,4c-4.3,0.4-8.6,0.9-12.8,1.4c-39.5,23.6-190.5,118.4-294.3,242.5
	c1.8-2.2,3.6-4.3,5.5-6.4C399.3,928.1,610,864.3,723.2,840.4 M1592.3,1514.4l-3.5,1.8c-19.3,10.1-44.5,15.1-77.1,15.1
	c-19.4,0-38.5-1.6-59.6-3.5c-42.1-3.9-113.5-12.3-114.2-12.4l-5.5-0.6l-4.3-3.5c-0.7-0.4-63.1-50.3-113.6-90
	c-2.1-1.7-3.9-3.2-5.6-4.6c-5.3-4.6-5.3-4.6-8.5-4.6c-16.2,0-63.3,14.6-166.5,46.6l-6.3,2l-6.3-2.4c-0.7-0.2-68.4-25.3-149.5-25.3
	c-6.6,0-13.3,0.2-19.7,0.5c-8.1,0.4-53.7,22.1-112,114.3l-3.7,5.9l-6.7,2.1c-1,0.3-101.3,32.7-207.8,63.1l-6.9,1.9l-6.6-3
	c-0.7-0.2-42.3-19.6-81.9-37.7c2.9,1.4,5.9,2.7,8.8,4c39.1,33.8,114,98.7,122.3,107.7c1.2,1.3,2.8,2.9,4.7,4.7
	c-1.9-2.2-3.8-4.4-5.6-6.7l-0.1-0.1l0,0c17.3,16.4,36.5,30.5,57.5,40.4c10.5,4.9,21.5,8.8,32.7,10.6c5.6,0.9,11.1,1.4,16.8,1.4
	c5.8,0,11.7-0.2,17.6-0.5c23.4-1.2,47-3,70.6-5.3c23.5-2.1,47.1-4.5,70.6-7.3c23.5-2.5,47-5.5,70.2-9.1c11.7-1.7,23.2-3.6,34.6-6.1
	c5.6-1.3,11.4-2.8,15.8-4.7c4-1.9,8.9-5.8,13.2-9.5c8.8-7.5,17.2-15.9,25.6-24.2c8.4-8.4,16.6-16.9,24.8-25.6
	c13.8-14.4,25.6-29.8,38.9-44.6c1.7-1.9,3.5-3.8,5.2-5.7c0,0,0,0,0,0l0.2,0.2c2.8,2,5.6,4,8.3,6.2c16.1,12,32.6,24.9,48.6,36.1
	c20.6,14.5,41.5,29,63.1,41.1c5.4,3,11,5.8,16.3,7.6c0.7,0.3,1.3,0.4,1.8,0.5c0.4,0.2,1.8,0.5,2,0.5c1.1,0.2,2.5,0.2,3.8,0.3
	c2.9,0,5.9-0.1,8.9-0.2c12.2-0.8,24.5-2.6,36.9-4.6c24.7-3.9,49.5-8.3,74.1-13.2c24.7-4.7,49.3-9.8,73.8-15.2
	c24.6-5.2,49.1-10.9,73.4-17.1c12.1-3.3,24.2-6.3,35-11.4c11-5.1,21.2-12.2,30.7-20.2c19-16.2,35-36.2,48.3-58.1l0,0.1
	C1582.2,1540,1587.7,1527.4,1592.3,1514.4 M1131.8,353.5h43.4v-88.2H857.6v88.2H901v-44.8h89.8v272.5h-37v50.6h125v-50.6h-37V308.7
	h89.8V353.5"/>
<path class="st9" d="M1460.4,850.4c-0.1,0-0.2-0.1-0.3-0.1c-18-1.4-36-2.6-54-3.8l-1-0.1C1321,920.3,1154.9,976,1113,989.3
	c-0.8,0.7-1.6,1.4-2.4,2.1c53.9-9.7,134.5-29,218-66c41.1-18.2,83-40.7,122.8-68.5C1454.4,854.8,1457.4,852.5,1460.4,850.4
	 M1024.1,833.1C865.7,873.2,763.8,934,725.6,959.7c35.3-17.9,71.2-34.6,107.7-49.9c4.4-1.8,8.8-3.7,13.2-5.5
	c1.4-0.6,2.8-1.1,4.1-1.7c3.7-1.5,7.4-2.9,11.1-4.4c2.1-0.8,4.1-1.6,6.2-2.4c3.3-1.3,6.7-2.6,10.1-3.9c2.6-1,5.1-1.9,7.7-2.9
	c3.1-1.2,6.3-2.4,9.4-3.5c3-1.1,6-2.2,8.9-3.2c2.9-1.1,5.9-2.1,8.8-3.2c3.4-1.2,6.8-2.4,10.2-3.6c2.7-0.9,5.4-1.9,8.1-2.8
	c4-1.3,8-2.7,12.1-4c2.2-0.7,4.4-1.5,6.7-2.2c6.3-2,12.7-4.1,19.2-6.1c14.1-4.3,28.4-8.4,43-12.4c19.3-5.3,38.7-10.1,58.3-14.4
	C1055,833.3,1039.6,833.2,1024.1,833.1 M723.2,840.4C610,864.3,399.3,928.1,207.2,1092c-1.8,2.1-3.7,4.2-5.5,6.4
	c97.7-67.9,265.5-168.8,473-230.2c6.7-2,13.4-3.9,20.2-5.8c35.1-9.8,70.5-18.2,106.3-25.2C775.3,838.1,749.2,839.2,723.2,840.4
	 M1629.7,1496.3c-2,0.9-4,1.8-5.9,2.8c-1.1,0.5-2.1,1-3.2,1.5l-2.6,1.2l-3.9,1.9c-0.5,0.3-1.1,0.5-1.7,0.8c-1.5,0.7-3,1.4-4.4,2.1
	l-1,0.5c-1.6,0.8-3.1,1.5-4.7,2.3l-0.5,0.2c-3.4,1.7-6.6,3.3-9.6,4.8c-4.6,13-10.1,25.6-16.7,37.7l0.1-0.1c0,0-0.1,0.1-0.1,0.1
	c-13.3,21.8-29.2,41.8-48.2,57.9c-9.4,8.1-19.7,15.1-30.7,20.2c-10.8,5.2-22.9,8.2-35,11.4c-24.3,6.1-48.8,11.9-73.4,17.1
	c-24.5,5.4-49.1,10.5-73.8,15.2c-24.6,5-49.4,9.4-74.1,13.2c-12.4,1.9-24.7,3.7-36.9,4.5c-3,0.2-5.9,0.2-8.9,0.2
	c-1.3-0.1-2.6-0.2-3.8-0.3c-0.7-0.1-1.3-0.2-2-0.5c-0.6-0.1-1.2-0.2-1.8-0.5c-5.3-1.7-10.9-4.6-16.3-7.6
	c-21.6-12.1-42.5-26.6-63.1-41.1c-16-11.2-32.6-24.2-48.6-36.1l-1.4,2l0.1,0.1c1,0.9,2,1.7,3,2.6l-0.1,0c-0.7-0.6-1.4-1.1-2.1-1.6
	l13.5,16.1c0,0,0.6,0.7,1.5,1.8c6.9,8.1,35.6,41.4,69.7,75.3c26,25.8,57.3,38.8,93.3,38.8c12.3,0,25.2-1.6,38.2-4.7
	c12.1-3,25.2-6.1,38.6-9.3c39.9-9.5,84-20.1,113.3-27.7c1.9-0.5,3.9-1,5.7-1.5c4.1-1.1,7.9-2.1,11.3-3c5.7-1.6,11.5-3,17.3-4.3
	c35.5-8.2,84.1-19.5,109.9-71.1c7.7-15.4,15.5-30.7,23.4-46c12.9-25,25.9-50,39-75c0,0,0,0,0,0l2.6-4.9L1629.7,1496.3
	 M1047.7,1607.6l-2.3-2.2c-13.4,14.9-25.2,30.2-38.9,44.6c-8.1,8.7-16.4,17.2-24.8,25.6c-8.4,8.3-16.8,16.7-25.6,24.2
	c-4.3,3.7-9.2,7.6-13.2,9.5c-4.4,2-10.2,3.4-15.8,4.7c-11.3,2.5-22.9,4.4-34.6,6.1c-23.3,3.6-46.7,6.6-70.2,9.1
	c-23.5,2.9-47.1,5.2-70.6,7.3c-23.6,2.3-47.2,4.1-70.6,5.3c-5.9,0.3-11.8,0.5-17.6,0.5c-5.7,0-11.2-0.5-16.8-1.4
	c-11.2-1.9-22.2-5.7-32.7-10.6c-21-9.9-40.3-24.1-57.5-40.4l0.1,0.1c2.3,2.9,4.9,5.6,7.3,8.3c-0.6-0.5-1.2-1.1-1.7-1.6
	c-1.9-1.8-3.5-3.4-4.7-4.7c-8.3-9-83.2-73.9-122.3-107.7c-2.9-1.4-5.9-2.7-8.8-4c7.4,11,14.9,21.9,22.4,32.7
	c11.5,16.6,23.3,33.1,35.3,49.4c5.2,7,10.4,13.9,15.8,20.8c42.5,54.7,96,105.3,198.7,105.3c12.9,0,26.5-0.8,40.6-2.4
	c3.3-0.4,6.5-0.7,9.6-1.1c3-0.3,6-0.7,8.8-1c89.3-10.3,113.8-14.6,127.4-17c3.5-0.6,6.5-1.1,9.8-1.6c1.3-0.2,2.6-0.4,3.9-0.6
	c0.5,0,30.7-3.9,60.2-18.3c20.3-9.9,40.4-24.7,50.1-46.7c24.7-55.3,29.7-68.5,29.9-69L1047.7,1607.6"/>
<path class="st0" d="M1289.6,1105.7c10.9-0.2,19.6-9.2,19.4-20.1c-0.2-10.9-9.1-19.6-20-19.4c-0.1,0-0.1,0-0.2,0
	c-10.9,0.2-19.6,9.2-19.4,20.1c0,0,0,0,0,0.1C1269.7,1097.2,1278.7,1105.9,1289.6,1105.7L1289.6,1105.7z M1411.2,1194.8
	c-26.1-12.6-54.7,3.4-106.7,4.3c-38.7,1.4-71.2,1.8-73.3-58.9c-2.1-60.9,22.6-111.2,61.4-112.5c38.7-1.4,74,46.9,78.8,107.6
	c1.3,16.7-0.5,28.9-4.7,38C1402.7,1168.9,1410.9,1193.3,1411.2,1194.8L1411.2,1194.8z M735.1,1120.4c10.9-0.3,19.5-9.4,19.2-20.3
	c-0.3-10.9-9.4-19.6-20.3-19.3c-10.9,0.3-19.5,9.4-19.2,20.3C715.1,1112,724.2,1120.6,735.1,1120.4L735.1,1120.4z M794.9,1152.2
	c0.6,60.8-31.6,57.1-70.4,57.5c-3.9,0.1-7.6,0.2-11.4,0.2c-4.3,0.1-8.5,0.2-12.5,0.1c-37.6-0.1-61.6-1.8-82.9,9.7
	c0.5-1.3,9.8-22.2,43.6-30.7c-3.7-8.2-6.1-19.6-6.7-35.5c-2.3-60.8,35.2-110.6,73.9-111C767.3,1042.2,794.3,1091.4,794.9,1152.2z
	 M1528.2,734.1c-0.3,3.7-0.6,7.5-1.1,11.2c-15.3-4.1-30.8-8-46.2-11.6c-51.1-11.2-102.9-19.6-155-25.5c-1.8-0.2-3.6-0.4-5.5-0.6
	c0.4-0.8,0.7-1.5,0.9-2.3c1.6-5.7,2.9-11.4,4.2-17.1c13.4-59.3,12.7-118.4,11.2-147.1l185,52.6
	C1531.9,659.6,1529.9,711.2,1528.2,734.1L1528.2,734.1z M1298,698.9c-0.6,2.1-0.5,4.3,0,6.4c-19.4-2-38.7-3.8-58.1-5.4
	c21.7-45.6,26.5-94.1,27.5-111.2c16.7-11.8,33.3-26.1,45.5-37.2C1314.1,584.2,1313.3,643.4,1298,698.9L1298,698.9z M727.9,705.1
	c0.5-2,0.6-4.1,0-6.3c-15.2-55.4-16-114.6-14.9-147.4c12.2,11.1,28.8,25.3,45.6,37.2c1,17.1,5.8,65.5,27.5,111.1
	C766.6,701.3,747.3,703.1,727.9,705.1L727.9,705.1z M700,708.2c-26,3.2-51.9,6.4-77.8,10.7c-25.8,4.4-51.6,9.1-77.1,14.8
	c-15.5,3.6-30.9,7.4-46.3,11.6c-0.1-1.2-0.3-3.1-0.6-5.5c-1.8-19.1-5.2-74,5.9-146l185-52.6c-1.4,27.5-2.2,83.3,9.7,140.4
	c1.7,7.9,3.5,15.9,5.7,23.7c0.2,0.8,0.6,1.6,0.9,2.2C703.6,707.8,701.8,707.9,700,708.2L700,708.2z M1627.3,782.9
	c-1.6-0.8-3.1-1.5-4.6-2.3c-2.3-1.1-4.8-2.4-7.7-3.8c-1.8-0.9-3.5-1.8-5.2-2.9c-17.1-7.9-35.1-14-53-19.9c-2.1-0.7-4.2-1.3-6.3-1.9
	c0.2-0.5,0.3-1.1,0.4-1.6c0.3-2,4.9-36.1,2.1-89.7c-1.2-22.9-3.7-49.4-8.5-78.5c-0.8-4.6-4.1-8.4-8.6-9.7l-26.4-7.5
	c-5.7-204.1-89.7-300-92.3-302.9c75.1,120.8,74.4,264.1,73.1,297.5l-163.5-46.5c-0.1,0-0.2,0-0.4-0.1c-0.7-0.2-1.4-0.3-2.1-0.3
	c-0.2,0-0.3,0-0.6,0c-0.9,0-1.8,0-2.7,0.2c-0.1,0-0.3,0.1-0.4,0.1c-0.7,0.2-1.4,0.4-2.1,0.7c-0.3,0.1-0.5,0.3-0.7,0.4
	c-0.6,0.4-1.1,0.7-1.6,1.1c-0.1,0.1-0.3,0.2-0.4,0.3c-0.2,0.1-0.2,0.2-0.3,0.3c-0.2,0.2-0.3,0.3-0.5,0.4c-0.2,0.2-4.6,4.5-11.4,10.9
	c0.5-15.3,0.6-38.7-1.1-67.3l-0.5-8.2c-5.1-71.8-22.1-172.6-72.8-260.9c0.4,1.3,5.5,15.9,11.9,40.6c16.3,62.1,42,187.7,28,324
	c-0.1,0.6-0.1,1.2-0.2,1.9c-0.2,0.2-0.4,0.3-0.7,0.5c-6.3,5-12.7,9.8-19.4,14.4c-3.3,2.2-5.2,5.9-5.3,9.8c0,0.6-1.4,61.6-28.3,113.5
	c-0.5,0.8-0.7,1.7-1,2.6c-66.9-4.6-134.1-6.5-201.1-6.6c-67,0-134.2,1.9-201.2,6.4c-0.3-0.8-0.5-1.7-0.9-2.4
	c-26.9-51.9-28.3-112.8-28.4-113.5c-0.1-3.9-2-7.6-5.3-9.8c-6.9-4.7-13.6-9.7-20.1-14.9c-13.6-129.7,8.8-249.9,25.2-315.2
	c7.8-31,14.2-49.8,14.7-51.2c-73.6,128.1-76.1,282.6-74.5,336.5c-7-6.5-11.3-10.8-11.4-10.9c-0.1-0.1-0.4-0.2-0.5-0.4l-0.3-0.3
	c-0.1-0.1-0.3-0.2-0.4-0.3c-0.5-0.4-1.1-0.7-1.6-1c-0.3-0.1-0.5-0.3-0.8-0.4c-0.6-0.3-1.3-0.6-2-0.7c-0.2-0.1-0.3-0.2-0.5-0.2
	c-0.9-0.2-1.8-0.3-2.7-0.2c-0.2,0-0.5,0-0.7,0c-0.7,0.1-1.3,0.1-2,0.3c-0.2,0.1-0.2,0.1-0.4,0.1l-163.4,46.5
	c-1.3-33.4-2-176.7,73-297.5c-2.6,3-86.6,98.9-92.3,303l-26.2,7.5c-4.6,1.3-8,5-8.7,9.7c-4.3,26-7.1,52.1-8.5,78.4
	c-2.8,53.7,1.8,87.7,2.1,89.8c0.1,0.5,0.3,1.1,0.4,1.6c-2.1,0.6-4.2,1.3-6.3,1.9c-17.9,5.9-36,12-53.1,20c-1.6,1-3.2,1.9-4.8,2.7
	l-0.3,0.1c-2.9,1.4-5.5,2.7-7.7,3.8l-4,2c-0.8,0.5-1.7,0.9-2.6,1.4c12.1-4.8,24.7-8.2,37.2-11.3c12.6-3.1,25.2-5.9,37.9-8.3
	c25.5-4.7,51-8.8,76.6-12c25.6-3.4,51.3-6.1,77.1-8.3c25.8-2.2,51.5-4.4,77.3-5.9c103.2-6.1,206.7-8,310.3-8.1
	c103.6,0.1,207.1,1.7,310.3,8c25.8,1.5,51.5,3.6,77.3,5.8c25.8,2.2,51.4,5,77,8.4c25.7,3.1,51.2,7.2,76.7,11.9
	c12.7,2.4,25.3,5.2,37.9,8.3c12.6,3.1,25.1,6.6,37.3,11.3C1628.7,783.6,1628,783.3,1627.3,782.9z"/>
<path class="st0" d="M1041.9,308.7v272.5h37v50.6h-125v-50.6h37V308.7H901v44.8h-43.4v-88.2h317.6v88.2h-43.4v-44.8L1041.9,308.7
	L1041.9,308.7z M1207.9,386.2V232.6H825v153.5h108.7v-44.8h24.4v207.2h-36.9v115.8h190.3V548.5h-37V341.3h24.5v44.8L1207.9,386.2
	L1207.9,386.2z"/>
</svg>
